<svg width="200" height="217"><g fill="#3b1467"><path xmlns="http://www.w3.org/2000/svg" d="M99.5 5A67.5 67.5 0 1 0 167 72.5 67.5 67.5 0 0 0 99.5 5zm0 126.657a59.4 59.4 0 1 1 59.4-59.4 59.4 59.4 0 0 1-59.4 59.373z"/><path xmlns="http://www.w3.org/2000/svg" d="M99.5 14.855a57.51 57.51 0 1 0 57.51 57.51 57.591 57.591 0 0 0-57.51-57.51z"/></g><g xmlns="http://www.w3.org/2000/svg" fill="#fff"><path d="M127.76 63.069C127.54 49.899 118.04 41 106.46 41H93.33c-11.48 0-21.115 8.49-21.299 22.097-3.494.537-7.032 3.633-7.032 7.44v17.56c0 4.152 3.2 7.532 7.131 7.532h1.911c1.351 0 1.724-1.418 1.724-1.746V86.98c3.597 10.076 13.233 17.308 24.53 17.308 10.539 0 19.629-6.297 23.721-15.323v4.874c0 .319.52 1.79 1.94 1.79h1.909c3.935 0 7.134-3.378 7.134-7.531v-17.56c-.001-3.856-3.68-7.022-7.24-7.468zM93.33 45.006h13.13c9.193 0 17.564 7.808 17.564 18.566v3.982c-4.09-9.036-13.184-15.342-23.728-15.342-11.298 0-20.934 7.235-24.53 17.311v-5.952c0-9.24 7.19-18.565 17.564-18.565zm6.965 55.49c-12.268 0-22.248-9.978-22.248-22.243 0-12.268 9.98-22.248 22.248-22.248 12.266 0 22.245 9.98 22.245 22.248 0 12.264-9.979 22.244-22.245 22.244z"/><path d="M100.294 69.322a8.929 8.929 0 1 0 .002 17.858 8.929 8.929 0 0 0-.002-17.858zm0 11.904a2.975 2.975 0 1 1 0-5.95 2.975 2.975 0 0 1 0 5.95z"/></g><path fill="#3b1467" d="M9.363 180.22q-.358 2.072-.876 4.582t-1.076 4.801-1.076 4.044-.916 2.271q-.478.08-1.016-.04t-.3-.557q.758-1.674 1.475-3.985.598-1.992 1.255-4.86t1.096-6.694q-.678 0-1.275-.299t-1.116-.717-.996-.936-.876-.997q-.598-.757-1.216-2.071t-1.135-2.79-.857-2.928-.458-2.45q0-.2.22-.28t.537-.079.657.06.578.1q.399 4.024 1.415 6.434t2.052 3.726q1.235 1.553 2.669 2.19.279-1.672.418-3.864t.18-4.203 0-3.487-.08-1.793q.279-.398.618-.398t1.016.279q.04 1.076.02 2.43t-.1 2.81-.18 2.948-.219 2.789-.219 2.35-.219 1.614zm.837-.837q.757.04 1.673.22t1.793.478 1.614.677 1.215.857q.478.438.558 1.334t-.12 1.973-.617 2.211-.936 2.052-1.116 1.514-1.116.598q-.876 0-1.474-.419t-.956-1.016-.538-1.255-.22-1.135q-.119-2.112-.039-3.746t.279-2.709q-.12-.2-.24-.359t-.238-.298-.28-.26q.16-.08.32-.238.318-.24.438-.479zm1.434 9.483q.12.16.319.339t.498.279.618.02.677-.439q.956-.996 1.434-2.052t.618-1.992-.04-1.653-.578-1.036l-.538-.339q-.22-.139-.557-.259t-.857-.259-1.355-.378q-.398 1.275-.557 2.55t-.14 2.33.16 1.833.298 1.056zm8.766.717q.279.2.916-.677t1.235-2.251.996-2.929.24-2.709q0-.239.199-.299t.458-.06.518.04.378.08q-.08.877-.219 2.211t-.18 2.65.1 2.39.658 1.395q.438.279 1.016-.04t1.116-.797.976-.856.558-.26q-.16.678-.678 1.315t-1.175 1.076-1.395.618-1.334-.06q-.24-.04-.379-.458t-.239-.976-.16-1.196-.139-1.155l-.717 1.434-.797 1.514-.757 1.235-.598.598q-.796.319-1.235.14t-.597-.498q-.24-.12-.339-.817t-.16-1.773-.06-2.43v-2.77l-.039-2.789-.12-2.53q.28 0 .558.04.24.04.478.1t.399.259q.199.916.06 3.227t-.22 5.578q0 .12.02.458t.08.737.2.757.378.478zm14.622-10.12q1.714-.12 3.367-.259t3.446-.299q.399.04.518.419t-.318.458q-1.475.16-3.387.438t-3.626.717q.08 1.235.08 2.53t.06 2.55.239 2.43.578 2.172q.557.678 1.115.797t1.056-.06.916-.557.737-.738q.28-.278.459 0t-.339.837q-.24.28-.598.598t-.856.538-1.116.279-1.335-.14q-.916-.239-1.354-1.474t-.658-2.889-.299-3.446-.199-3.227q-1.753.159-2.57.278t-1.175.16-.478-.04-.438-.359q.04-.199.02-.378t0-.299.159-.239.538-.2q.597-.159 1.733-.179t2.211-.179q-.04-1.275-.08-1.992t-.08-1.255-.059-1.056-.02-1.355q0-.199.22-.298t.497-.12.518.08.32.299q.119.358.158 1.055t.06 1.475.02 1.573-.04 1.355zm7.331 10.12q.28.2.917-.677t1.235-2.251.996-2.929.24-2.709q0-.239.198-.299t.459-.06.518.04.378.08q-.08.877-.22 2.211t-.178 2.65.1 2.39.657 1.395q.438.279 1.016-.04t1.115-.797.976-.856.558-.26q-.16.678-.677 1.315t-1.176 1.076-1.394.618-1.335-.06q-.239-.04-.378-.458t-.24-.976-.159-1.196-.14-1.155l-.716 1.434-.797 1.514-.757 1.235-.598.598q-.797.319-1.235.14t-.598-.498q-.239-.12-.338-.817t-.16-1.773-.06-2.43v-2.77l-.04-2.789-.119-2.53q.279 0 .558.04.239.04.478.1t.398.259q.2.916.06 3.227t-.219 5.578q0 .12.02.458t.08.737.199.757.378.478zm7.61-23.826q.12 0 .3-.1t.378-.06.358.36.24 1.115q.08.996.159 2.43t.18 3.088.218 3.447.24 3.486.219 3.148.179 2.49q.12-.478.478-1.295t.896-1.713 1.255-1.714 1.554-1.255q.678-.279 1.156-.299t.817.14.557.398.34.439q.477 1.155.338 2.67t-.757 3.007-1.694 2.73-2.51 1.792q-.797.32-1.155.34t-.717.019q.08.598.04.797t-.12.239q-.16.16-.518.18t-.717-.06q-.24-3.108-.438-6.017-.08-1.235-.18-2.55t-.199-2.55-.18-2.33-.119-1.933q-.04-1.514-.18-3.347t-.258-3.406-.2-2.65.04-1.036zm6.694 15.021q-.558.319-1.175 1.116t-1.156 1.932-.916 2.49-.458 2.71q.797.199 1.633-.22t1.554-1.175 1.295-1.753.917-1.972.378-1.833-.319-1.375q-.279-.518-.836-.378t-.917.458zm8.367-.717q.12-.04.678-.22t.916-.06q1.155-.039 1.773.599t.1 2.47q-.757 2.032-2.012 3.386t-2.969 2.59q.399 1.036 1.196 1.156t1.673-.26 1.713-1.015 1.355-1.116q.837-.717 1.335-1.215t1.055-1.215q.12-.08.14.02t-.02.298-.12.558q-.119.28-.239.498t-.338.478-.578.618-.877.956q-.597.558-1.155 1.096t-1.175.936-1.355.558-1.693 0q-.797-.279-1.275-.598t-.737-.657-.379-.618-.16-.478q-.199-.797-.159-2.151t.797-3.506q.518-1.116 1.116-1.893t1.394-1.215zm-1.753 7.052q.518-.279 1.215-.777t1.315-1.155 1.076-1.455.498-1.673q.12-.598-.04-.837-.08-.12-.16-.12-.677-.318-1.354.2t-1.235 1.474-.936 2.132-.379 2.211zm18.766-20.12q.359.796.459 1.035t.179.797q-.478-.398-.837-.677t-.717-.498-.797-.379-1.036-.279q-1.594-.199-3.008.12t-2.39 1.016-1.375 1.713 0 2.211q.438 1.315 1.355 2.53t2.091 2.371 2.51 2.171 2.55 1.913 2.252 1.614 1.593 1.235q1.235-.638 2.311-1.076t2.231-.877h.24q.159.04.04.24-.36.318-.857.677t-1.016.737-1.016.737-.897.638q1.156 1.155 1.514 2.091t.04 1.833-1.315 1.833-2.59 2.012q-1.035.717-2.23 1.235t-2.212.618-1.634-.379-.418-1.793q.637-2.151 2.35-3.984t3.945-3.706q0-.12-.777-.677t-1.992-1.434-2.67-2.032-2.788-2.43-2.371-2.67-1.395-2.75q-.478-1.713-.219-2.988t.837-2.131 1.275-1.335 1.135-.638q.917-.278 1.853-.478t1.893-.12 1.932.539 1.972 1.414zm-3.267 25.22q-.08.279.2.458t.916.14 1.613-.379 2.331-1.135q.996-.678 1.534-1.475t.638-1.573-.26-1.435-1.194-1.056q-.399.2-1.335.937t-1.913 1.693-1.733 1.992-.797 1.833zm11.117-12.83q.757.04 1.673.22t1.793.478 1.614.677 1.215.857q.478.438.558 1.334t-.12 1.973-.618 2.211-.936 2.052-1.115 1.514-1.116.598q-.877 0-1.474-.419t-.957-1.016-.537-1.255-.22-1.135q-.12-2.112-.04-3.746t.28-2.709q-.12-.2-.24-.359t-.239-.298-.279-.26q.16-.08.32-.238.318-.24.438-.479zm1.434 9.483q.12.16.319.339t.498.279.617.02.678-.439q.956-.996 1.434-2.052t.618-1.992-.04-1.653-.578-1.036l-.538-.339q-.219-.139-.558-.259t-.856-.259-1.355-.378q-.398 1.275-.558 2.55t-.14 2.33.16 1.833.299 1.056zm8.128-9.682q0 1.116-.02 2.231t-.04 2.152-.04 1.952-.06 1.634q0-.16.18-.777t.498-1.414.697-1.694.817-1.594.896-1.095.857-.24q.877.4 1.235 1.156t.518 1.733.319 2.172.717 2.51q.24.598.697.876t.877.399.677.14.18.139q-.997.757-1.714.518t-1.215-1.056-.817-1.952-.577-2.192-.459-1.793-.438-.737q-.359.04-.777.677t-.857 1.594-.836 2.092-.737 2.132-.538 1.713-.24.876q-.597 0-.736.04t-.459-.398q.2-3.506.14-6.634t-.18-5.439q0-.358.18-.358t.398.16.458.318.399.16zm21.197 7.81q.08.08-.02.278t-.28.439-.358.458-.259.299q-.956 1.075-1.713 1.852t-1.235 1.335q0 .04-.02.458t-.02.459q-.08 1.354-.06 2.729t-.18 2.769q-.238 1.594-.497 2.57t-.538 1.594-.578 1.036-.657.936q-.319.438-.717.757t-1.076.757q-.917.558-1.913.837t-1.832.1-1.415-.897-.657-2.152q-.08-1.594.558-3.147t1.514-2.83 1.713-2.15 1.155-1.196q.518-.558.937-.956t.856-.738.937-.737 1.175-.956q.16-.956.2-2.012t0-2.171q-.718 1.474-1.535 2.31t-1.474 1.256-1.076.518-.338.1q-.757.119-1.216.059t-.717-.24-.398-.417-.22-.479q-.199-1.036.02-2.131t.658-2.092.956-1.833.956-1.354q.08-.08.379-.419t.777-.757 1.175-.856 1.614-.797q.916-.2 1.873-.18t1.553.459q-.318.12-.976.298t-.856.26v.08q0 .119.08.119-.678-.16-2.112.557t-3.108 2.75q-.757 1.075-1.156 1.932t-.577 1.474-.18 1.056.04.677q.04.16.28.28t.597.04q1.036-.24 1.932-1.057t1.634-1.852 1.255-2.032.757-1.594q.398-.917.418-1.694t-.06-.776h.16l.02.02-.26.06q.08-.08.16-.1t.16-.06q-.04-.04.02-.1t.139-.06q0-.08.199-.159l.24-.08.119-.08q.159-.079.199-.119t.1-.04.219.06.557.18q-.358.956-.617 2.33t-.458 2.77-.339 2.649-.259 1.972q.319-.319.936-.757t1.216-.876q.717-.479 1.514-.996zm-5.02 6.892q.119-.916-.04-1.115-.08-.12-.2-.08-1.076.877-1.753 1.474t-.916.797q-1.913 1.793-2.85 3.168t-1.254 2.53q-.438 1.275-.498 2.25t.498 1.893q.996.757 2.171.3t2.172-1.415q1.155-1.315 1.872-3.686t.797-6.116zm23.069-20.877q-.598.677-1.933 1.334t-2.948 1.215-3.228.977-2.729.657q.399 1.076.956 1.673t1.435 1.475q1.315 1.036 2.27 1.773t1.814 1.334 1.753 1.136 2.092 1.215q1.593.638 2.47.917t1.355.378.677.1.438.12q.08.238-.358.338t-1.036.1-1.216-.06-.896-.14q-.598-.16-1.395-.438t-1.872-.777-2.41-1.315-2.969-2.092q-.677-.517-1.235-.896t-.956-.657q-.439-.32-.837-.558.08.478.219 1.374t.299 2.012.339 2.311.338 2.271.319 1.913.279 1.195q-.598.24-1.156.08t-.836-.12q-.16-2.63-.538-5.538t-.618-6.415l-.02-.06q.02.06.04.1t-.1-.319q-.438-.597-.697-.896t-.498-.538-.518-.538-.797-.936q.12-.16.618-.279t1.096-.319q-.2-1.354-.32-2.53t-.238-2.29-.24-2.212-.278-2.33q-.359 0-1.853-.06t-3.367-.1q-.318-.2-.498-.339t-.1-.777q.678-.08 1.734-.06t2.151.06 2.112.12 1.654.12q4.94.557 7.789 1.493t4.124 1.973 1.215 2.071-.896 1.754zm-11.435 2.948q1.314-.24 3.127-.777t3.467-1.155 2.809-1.275 1.115-1.216v-.358q-.16-.598-1.275-1.235t-2.769-1.196-3.586-1.036-3.725-.717q.16 1.753.319 3.985t.518 4.98zm19.164 4.104q.12-.04.678-.22t.916-.06q1.155-.039 1.773.599t.1 2.47q-.757 2.032-2.013 3.386t-2.968 2.59q.399 1.036 1.195 1.156t1.674-.26 1.713-1.015 1.355-1.116q.836-.717 1.335-1.215t1.055-1.215q.12-.08.14.02t-.02.298-.12.558q-.12.28-.239.498t-.338.478-.578.618-.877.956q-.597.558-1.155 1.096t-1.175.936-1.355.558-1.693 0q-.797-.279-1.275-.598t-.738-.657-.378-.618-.16-.478q-.199-.797-.159-2.151t.797-3.506q.518-1.116 1.116-1.893t1.394-1.215zm-1.753 7.052q.518-.279 1.215-.777t1.315-1.155 1.076-1.455.498-1.673q.12-.598-.04-.837-.08-.12-.16-.12-.677-.318-1.354.2t-1.235 1.474-.936 2.132-.379 2.211zm17.451-6.694q.16.08.379.2t.418.358.339.618.14.976q-.08 2.072-1.036 3.745t-2.291 2.83-2.77 1.712-2.43.399q0 3.865.06 6.454t.08 4.244 0 2.49-.12 1.155-.359.3-.657-.1q-.08.12-.12-.2-.04-.279-.06-.996t-.02-2.231q0-.12-.02-1.375t-.04-3.147-.079-4.164-.14-4.422-.179-3.985-.259-2.829q0-.08-.04-.398l-.099-.797-.16-1.036-.218-1.076q.677-.04.916.14t.478.418q.24.757.458 2.43t.498 4.543q.08-.399.419-1.116t.896-1.534 1.275-1.613 1.514-1.355 1.614-.777 1.613.14zm-5.02 8.965q1.833-.757 2.889-1.952t1.534-2.37.478-2.093-.359-1.155q-.797-.518-1.514-.12t-1.394.957q-.359.318-.996 1.135t-1.275 1.813-1.096 2.012-.458 1.773q.16.2.478.279.239.08.657.04t1.056-.319zm11.037-9.323l.677-.22q.557-.18.917-.06 1.155-.039 1.773.599t.1 2.47q-.758 2.032-2.013 3.386t-2.968 2.59q.398 1.036 1.195 1.156t1.673-.26 1.714-1.015 1.354-1.116q.837-.717 1.335-1.215t1.056-1.215q.12-.08.14.02t-.02.298-.12.558q-.12.28-.24.498t-.338.478-.577.618-.877.956q-.598.558-1.155 1.096t-1.176.936-1.355.558-1.693 0q-.797-.279-1.275-.598t-.737-.657-.378-.618-.16-.478q-.2-.797-.16-2.151t.798-3.506q.518-1.116 1.115-1.893t1.395-1.215zm-1.753 7.052q.518-.279 1.215-.777t1.315-1.155 1.075-1.455.499-1.673q.12-.598-.04-.837-.08-.12-.16-.12-.677-.318-1.354.2t-1.235 1.474-.937 2.132-.378 2.211zm16.614-7.49q-.04.239-.179.996t-.299 1.773-.279 2.131-.14 2.112.12 1.693.459.857q.916.438 1.872-.299t2.231-2.251q.12 0 .02.319t-.318.697l-.439.757-.338.498q-.32.398-.917.896t-1.275.797-1.295.26-1.016-.718q-.199-.478-.239-1.175t0-1.415.12-1.315.12-.876q-.837 1.554-1.913 2.948t-2.112 2.192-1.912.856-1.355-1.016q-.279-1.036 0-2.33t.837-2.331q.836-1.435 1.753-2.63t1.952-2.032 2.172-1.215 2.37-.18zm-7.49 10.12q.398.08 1.275-.598t1.833-1.893 1.733-2.828 1.016-3.407h-.458l-.698.24q-1.514.995-2.59 2.33t-1.673 2.59-.717 2.25.279 1.316zm16.933-10.28q1.713-.12 3.367-.259t3.446-.299q.399.04.518.419t-.318.458q-1.475.16-3.387.438t-3.626.717q.08 1.235.08 2.53t.06 2.55.239 2.43.577 2.172q.558.678 1.116.797t1.056-.06.916-.557.737-.738q.28-.278.459 0t-.34.837q-.238.28-.597.598t-.856.538-1.116.279-1.335-.14q-.916-.239-1.354-1.474t-.658-2.889-.299-3.446-.199-3.227q-1.753.159-2.57.278t-1.175.16-.478-.04-.439-.359q.04-.199.02-.378t0-.299.16-.239.538-.2q.597-.159 1.733-.179t2.211-.179q-.04-1.275-.08-1.992t-.08-1.255-.059-1.056-.02-1.355q0-.199.22-.298t.497-.12.518.08.319.299q.12.358.16 1.055t.06 1.475.02 1.573-.04 1.355z"/></svg>